<svg width="18" height="19" viewBox="0 0 18 19" fill="none" xmlns="http://www.w3.org/2000/svg">
<g clip-path="url(#clip0_2003_280)">
<path fill-rule="evenodd" clip-rule="evenodd" d="M0 0.5H34.2003V1.88463H0V0.5ZM0 3.26926H34.2003V4.65389H0V3.26926ZM0 6.03852H34.2003V7.42314H0V6.03852ZM0 8.80777H34.2003V10.1924H0V8.80777ZM0 11.577H34.2003V12.9617H0V11.577ZM0 14.3463H34.2003V15.7309H0V14.3463ZM0 17.1155H34.2003V18.5002H0V17.1155Z" fill="#BD3D44"/>
<path fill-rule="evenodd" clip-rule="evenodd" d="M0 1.88464H34.2003V3.26927H0V1.88464ZM0 4.6539H34.2003V6.03853H0V4.6539ZM0 7.42316H34.2003V8.80779H0V7.42316ZM0 10.1924H34.2003V11.577H0V10.1924ZM0 12.9617H34.2003V14.3463H0V12.9617ZM0 15.7309H34.2003V17.1156H0V15.7309Z" fill="white"/>
<path fill-rule="evenodd" clip-rule="evenodd" d="M0 0.5H13.6801V10.1924H0V0.5Z" fill="#192F5D"/>
<path fill-rule="evenodd" clip-rule="evenodd" d="M1.13539 0.915405L1.27386 1.3031H1.66155L1.34309 1.53849L1.4677 1.91234L1.13539 1.67695L0.830776 1.91234L0.955392 1.53849L0.623081 1.3031H1.03847L1.13539 0.915405ZM3.42003 0.915405L3.54465 1.3031H3.94619L3.61388 1.53849L3.75234 1.91234L3.42003 1.67695L3.08772 1.91234L3.22618 1.53849L2.89387 1.3031H3.29542L3.42003 0.915405ZM5.70467 0.915405L5.82929 1.3031H6.23083L5.89852 1.53849L6.03698 1.91234L5.70467 1.67695L5.37236 1.91234L5.51082 1.53849L5.17851 1.3031H5.58005L5.70467 0.915405ZM7.97546 0.915405L8.11392 1.3031H8.50162L8.18316 1.53849L8.30777 1.91234L7.97546 1.67695L7.657 1.91234L7.78161 1.53849L7.4493 1.3031H7.86469L7.97546 0.915405ZM10.2601 0.915405L10.3847 1.3031H10.7863L10.4539 1.53849L10.5924 1.91234L10.2463 1.67695L9.92779 1.91234L10.0524 1.53849L9.72009 1.3031H10.1216L10.2601 0.915405ZM12.5447 0.915405L12.6694 1.3031H13.0709L12.7386 1.53849L12.877 1.91234L12.5447 1.67695L12.2124 1.91234L12.3509 1.53849L12.0186 1.3031H12.4201L12.5447 0.915405ZM2.28464 1.88465L2.40925 2.27234H2.81079L2.47848 2.50773L2.61695 2.88158L2.28464 2.64619L1.95233 2.88158L2.09079 2.50773L1.75848 2.27234H2.16002L2.28464 1.88465ZM4.55543 1.88465L4.69389 2.27234H5.08159L4.76312 2.50773L4.88774 2.88158L4.55543 2.64619L4.23696 2.88158L4.36158 2.50773L4.02927 2.27234H4.44466L4.55543 1.88465ZM6.84007 1.88465L6.96468 2.27234H7.36622L7.03391 2.50773L7.17238 2.88158L6.84007 2.64619L6.50775 2.88158L6.64622 2.50773L6.31391 2.27234H6.71545L6.84007 1.88465ZM9.1247 1.88465L9.24932 2.27234H9.65086L9.31855 2.50773L9.45701 2.88158L9.1247 2.64619L8.79239 2.88158L8.93086 2.50773L8.59854 2.27234H9.00009L9.1247 1.88465ZM11.3955 1.88465L11.534 2.27234H11.9078L11.5893 2.50773L11.714 2.88158L11.3816 2.64619L11.0632 2.88158L11.1878 2.50773L10.8555 2.27234H11.2709L11.3955 1.88465ZM1.14924 2.85389L1.26001 3.24158H1.6754L1.34309 3.47697L1.4677 3.85082L1.13539 3.61543L0.830776 3.85082L0.955392 3.47697L0.623081 3.24158H1.03847L1.14924 2.85389ZM3.42003 2.85389L3.54465 3.24158H3.94619L3.62773 3.47697L3.75234 3.85082L3.42003 3.61543L3.10157 3.85082L3.22618 3.47697L2.89387 3.24158H3.29542L3.42003 2.85389ZM5.70467 2.85389L5.82929 3.24158H6.23083L5.89852 3.47697L6.03698 3.85082L5.70467 3.61543L5.37236 3.85082L5.51082 3.47697L5.17851 3.24158H5.58005L5.70467 2.85389ZM7.97546 2.85389L8.11392 3.24158H8.50162L8.18316 3.47697L8.30777 3.85082L7.97546 3.61543L7.657 3.85082L7.78161 3.47697L7.4493 3.24158H7.86469L7.97546 2.85389ZM10.2601 2.85389L10.3847 3.24158H10.7863L10.4678 3.47697L10.5924 3.85082L10.2601 3.61543L9.94163 3.85082L10.0663 3.47697L9.73394 3.24158H10.1355L10.2601 2.85389ZM12.5447 2.85389L12.6694 3.24158H13.0709L12.7386 3.47697L12.877 3.85082L12.5447 3.61543L12.2124 3.85082L12.3509 3.47697L12.0186 3.24158H12.4201L12.5447 2.85389ZM2.28464 3.82313L2.40925 4.21082H2.81079L2.47848 4.44621L2.61695 4.82006L2.28464 4.58467L1.95233 4.82006L2.09079 4.44621L1.75848 4.21082H2.16002L2.28464 3.82313ZM4.55543 3.82313L4.69389 4.21082H5.08159L4.76312 4.44621L4.88774 4.82006L4.55543 4.58467L4.23696 4.82006L4.36158 4.44621L4.02927 4.21082H4.44466L4.55543 3.82313ZM6.84007 3.82313L6.96468 4.21082H7.36622L7.04776 4.44621L7.17238 4.82006L6.84007 4.58467L6.5216 4.82006L6.64622 4.44621L6.31391 4.21082H6.71545L6.84007 3.82313ZM9.1247 3.82313L9.24932 4.21082H9.65086L9.31855 4.44621L9.45701 4.82006L9.1247 4.58467L8.79239 4.82006L8.93086 4.44621L8.59854 4.21082H9.00009L9.1247 3.82313ZM11.3955 3.82313L11.534 4.21082H11.9078L11.5893 4.44621L11.714 4.82006L11.3816 4.58467L11.0632 4.82006L11.1878 4.44621L10.8555 4.21082H11.2709L11.3955 3.82313ZM1.14924 4.79237L1.26001 5.18006H1.6754L1.34309 5.41545L1.4677 5.7893L1.13539 5.55391L0.830776 5.7893L0.955392 5.41545L0.623081 5.18006H1.03847L1.14924 4.79237ZM3.42003 4.79237L3.54465 5.18006H3.94619L3.62773 5.41545L3.75234 5.7893L3.42003 5.55391L3.10157 5.7893L3.22618 5.41545L2.89387 5.18006H3.29542L3.42003 4.79237ZM5.70467 4.79237L5.82929 5.18006H6.23083L5.89852 5.41545L6.03698 5.7893L5.70467 5.55391L5.37236 5.7893L5.51082 5.41545L5.17851 5.18006H5.58005L5.70467 4.79237ZM7.97546 4.79237L8.11392 5.18006H8.50162L8.18316 5.41545L8.30777 5.7893L7.97546 5.55391L7.657 5.7893L7.78161 5.41545L7.4493 5.18006H7.86469L7.97546 4.79237ZM10.2601 4.79237L10.3847 5.18006H10.7863L10.4678 5.41545L10.5924 5.7893L10.2601 5.55391L9.94163 5.7893L10.0663 5.41545L9.73394 5.18006H10.1355L10.2601 4.79237ZM12.5447 4.79237L12.6694 5.18006H13.0709L12.7386 5.41545L12.877 5.7893L12.5447 5.55391L12.2124 5.7893L12.3509 5.41545L12.0186 5.18006H12.4201L12.5447 4.79237ZM2.28464 5.76161L2.40925 6.1493H2.81079L2.47848 6.38469L2.61695 6.75854L2.28464 6.52315L1.95233 6.75854L2.09079 6.38469L1.75848 6.1493H2.16002L2.28464 5.76161ZM4.55543 5.76161L4.69389 6.1493H5.08159L4.76312 6.38469L4.88774 6.75854L4.55543 6.52315L4.23696 6.75854L4.36158 6.38469L4.02927 6.1493H4.44466L4.55543 5.76161ZM6.84007 5.76161L6.96468 6.1493H7.36622L7.04776 6.38469L7.17238 6.75854L6.84007 6.52315L6.5216 6.75854L6.64622 6.38469L6.31391 6.1493H6.71545L6.84007 5.76161ZM9.1247 5.76161L9.24932 6.1493H9.65086L9.31855 6.38469L9.45701 6.75854L9.1247 6.52315L8.79239 6.75854L8.93086 6.38469L8.59854 6.1493H9.00009L9.1247 5.76161ZM11.3955 5.76161L11.534 6.1493H11.9078L11.5893 6.38469L11.714 6.75854L11.3816 6.52315L11.0632 6.75854L11.1878 6.38469L10.8555 6.1493H11.2709L11.3955 5.76161ZM1.14924 6.73085L1.26001 7.11854H1.6754L1.34309 7.35393L1.4677 7.72778L1.13539 7.49239L0.830776 7.72778L0.955392 7.35393L0.623081 7.11854H1.03847L1.14924 6.73085ZM3.42003 6.73085L3.54465 7.11854H3.94619L3.62773 7.35393L3.75234 7.72778L3.42003 7.49239L3.10157 7.72778L3.22618 7.35393L2.89387 7.11854H3.29542L3.42003 6.73085ZM5.70467 6.73085L5.82929 7.11854H6.23083L5.89852 7.35393L6.03698 7.72778L5.70467 7.49239L5.37236 7.72778L5.51082 7.35393L5.17851 7.11854H5.58005L5.70467 6.73085ZM7.97546 6.73085L8.11392 7.11854H8.50162L8.18316 7.35393L8.30777 7.72778L7.97546 7.49239L7.657 7.72778L7.78161 7.35393L7.4493 7.11854H7.86469L7.97546 6.73085ZM10.2601 6.73085L10.3847 7.11854H10.7863L10.4678 7.35393L10.5924 7.72778L10.2601 7.49239L9.94163 7.72778L10.0663 7.35393L9.73394 7.11854H10.1355L10.2601 6.73085ZM12.5447 6.73085L12.6694 7.11854H13.0709L12.7386 7.35393L12.877 7.72778L12.5447 7.49239L12.2124 7.72778L12.3509 7.35393L12.0186 7.11854H12.4201L12.5447 6.73085ZM2.28464 7.70009L2.40925 8.08778H2.81079L2.47848 8.32317L2.61695 8.69702L2.28464 8.46163L1.95233 8.69702L2.09079 8.32317L1.75848 8.08778H2.16002L2.28464 7.70009ZM4.55543 7.70009L4.69389 8.08778H5.08159L4.76312 8.32317L4.88774 8.69702L4.55543 8.46163L4.23696 8.69702L4.36158 8.32317L4.02927 8.08778H4.44466L4.55543 7.70009ZM6.84007 7.70009L6.96468 8.08778H7.36622L7.04776 8.32317L7.17238 8.69702L6.84007 8.46163L6.5216 8.69702L6.64622 8.32317L6.31391 8.08778H6.71545L6.84007 7.70009ZM9.1247 7.70009L9.24932 8.08778H9.65086L9.31855 8.32317L9.45701 8.69702L9.1247 8.46163L8.79239 8.69702L8.93086 8.32317L8.59854 8.08778H9.00009L9.1247 7.70009ZM11.3955 7.70009L11.534 8.08778H11.9078L11.5893 8.32317L11.714 8.69702L11.3816 8.46163L11.0632 8.69702L11.1878 8.32317L10.8555 8.08778H11.2709L11.3955 7.70009ZM1.14924 8.66933L1.26001 9.05702H1.6754L1.34309 9.29241L1.4677 9.66626L1.13539 9.43087L0.830776 9.66626L0.955392 9.29241L0.623081 9.05702H1.03847L1.14924 8.66933ZM3.42003 8.66933L3.54465 9.05702H3.94619L3.62773 9.29241L3.75234 9.66626L3.42003 9.43087L3.10157 9.66626L3.22618 9.29241L2.89387 9.05702H3.29542L3.42003 8.66933ZM5.70467 8.66933L5.82929 9.05702H6.23083L5.89852 9.29241L6.03698 9.66626L5.70467 9.43087L5.37236 9.66626L5.51082 9.29241L5.17851 9.05702H5.58005L5.70467 8.66933ZM7.97546 8.66933L8.11392 9.05702H8.50162L8.18316 9.29241L8.30777 9.66626L7.97546 9.43087L7.657 9.66626L7.78161 9.29241L7.4493 9.05702H7.86469L7.97546 8.66933ZM10.2601 8.66933L10.3847 9.05702H10.7863L10.4678 9.29241L10.5924 9.66626L10.2601 9.43087L9.94163 9.66626L10.0663 9.29241L9.73394 9.05702H10.1355L10.2601 8.66933ZM12.5447 8.66933L12.6694 9.05702H13.0709L12.7386 9.29241L12.877 9.66626L12.5447 9.43087L12.2124 9.66626L12.3509 9.29241L12.0186 9.05702H12.4201L12.5447 8.66933Z" fill="white"/>
</g>
<defs>
<clipPath id="clip0_2003_280">
<rect y="0.5" width="18" height="18" rx="9" fill="white"/>
</clipPath>
</defs>
</svg>
