<svg width="24" height="25" viewBox="0 0 24 25" fill="none" xmlns="http://www.w3.org/2000/svg">
<g clip-path="url(#clip0_2003_534)">
<path d="M23.4894 12.77C23.4894 11.78 23.4145 11.06 23.2347 10.31H11.9844V14.765H18.5908C18.4559 15.875 17.7369 17.54 16.134 18.665L16.119 18.815L19.6694 21.575L19.909 21.605C22.1861 19.505 23.4894 16.415 23.4894 12.77Z" fill="#4285F4"/>
<path d="M11.9844 24.5C15.2202 24.5 17.9316 23.435 19.924 21.59L16.1489 18.65C15.1303 19.355 13.782 19.85 11.9994 19.85C8.8235 19.85 6.142 17.75 5.18325 14.87L5.04843 14.885L1.33327 17.75L1.28833 17.885C3.25077 21.8 7.2955 24.5 11.9844 24.5Z" fill="#34A853"/>
<path d="M5.16826 14.87C4.91359 14.12 4.76379 13.325 4.76379 12.5C4.76379 11.675 4.91359 10.88 5.15328 10.13V9.96499L1.40816 7.05499L1.28832 7.11499C0.464394 8.73499 0 10.565 0 12.5C0 14.435 0.464394 16.265 1.27334 17.885L5.16826 14.87Z" fill="#FBBC05"/>
<path d="M11.9844 5.135C14.2315 5.135 15.7595 6.11 16.6134 6.92L19.999 3.62C17.9167 1.685 15.2202 0.5 11.9844 0.5C7.29552 0.5 3.2508 3.2 1.27338 7.115L5.15332 10.13C6.12705 7.235 8.80855 5.135 11.9844 5.135Z" fill="#EB4335"/>
</g>
<defs>
<clipPath id="clip0_2003_534">
<path d="M0 12.5C0 5.87258 5.37258 0.5 12 0.5C18.6274 0.5 24 5.87258 24 12.5C24 19.1274 18.6274 24.5 12 24.5C5.37258 24.5 0 19.1274 0 12.5Z" fill="white"/>
</clipPath>
</defs>
</svg>
