<svg width="26" height="26" viewBox="0 0 26 26" fill="none" xmlns="http://www.w3.org/2000/svg">
<g clip-path="url(#clip0_2003_791)">
<path d="M25.2875 12.6968C25.2875 19.4329 19.8268 24.8937 13.0906 24.8937C6.35447 24.8937 0.893738 19.4329 0.893738 12.6968C0.893738 5.96061 6.35447 0.499878 13.0906 0.499878C19.8268 0.499878 25.2875 5.96061 25.2875 12.6968Z" fill="#6356AB" stroke="white"/>
<path d="M18.4741 12.676C18.5201 12.6245 18.5717 12.5729 18.6233 12.5205C18.7899 12.3412 18.9724 12.1499 19.1446 11.965C19.8345 11.2458 20.2203 10.2881 20.2215 9.29152C20.2215 9.22248 20.2326 8.93839 20.2326 8.89792C20.1524 6.61882 18.2336 4.76111 15.9656 4.76111H8.82363V7.64251H5.94858V20.6322H16.0799C18.3312 20.6322 20.2326 18.6301 20.2326 16.2582C20.2381 14.5623 19.1899 13.3648 18.4741 12.676ZM10.2552 9.08916L15.9426 9.09472L12.3692 12.7173L15.9029 16.3042H10.2552V9.08916ZM16.0799 19.18H7.38015V9.08361H8.82442V17.7453H15.9029C16.487 17.7453 17.0084 17.3921 17.2314 16.8486C17.3412 16.584 17.3704 16.2929 17.3153 16.0118C17.2602 15.7307 17.1234 15.4722 16.9219 15.2686L14.3968 12.711L16.9623 10.1129C17.375 9.69623 17.4948 9.07726 17.2718 8.53367C17.1647 8.26887 16.981 8.04206 16.7442 7.88231C16.5074 7.72255 16.2283 7.63712 15.9426 7.63696H10.2608V6.20221H15.9712C17.4837 6.20221 18.755 7.4346 18.8066 8.93283C18.8066 8.99632 18.7947 9.24549 18.7947 9.25105V9.27962C18.7946 9.90797 18.5505 10.5117 18.1138 10.9635C17.936 11.1492 17.7527 11.3452 17.5869 11.519C17.306 11.8142 17.0655 12.069 16.9504 12.1848L16.4346 12.6935L16.9449 13.2093C17.0139 13.2783 17.0996 13.3593 17.2028 13.4577C17.798 14.0132 18.801 14.9385 18.801 16.2462C18.8066 17.8088 17.5353 19.18 16.0799 19.18Z" fill="white"/>
</g>
<defs>
<clipPath id="clip0_2003_791">
<rect width="25.3938" height="25.3938" fill="white" transform="translate(0.393799)"/>
</clipPath>
</defs>
</svg>
