<svg width="16" height="17" viewBox="0 0 16 17" fill="none" xmlns="http://www.w3.org/2000/svg">
<path d="M4 5.83331C4 4.77245 4.42143 3.75503 5.17157 3.00489C5.92172 2.25474 6.93913 1.83331 8 1.83331C9.06087 1.83331 10.0783 2.25474 10.8284 3.00489C11.5786 3.75503 12 4.77245 12 5.83331C12 10.5 14 11.8333 14 11.8333H2C2 11.8333 4 10.5 4 5.83331Z" stroke="#1F2937" stroke-width="1.2" stroke-linecap="round" stroke-linejoin="round"/>
<path d="M6.86667 14.5C6.97826 14.703 7.1423 14.8722 7.34166 14.9901C7.54102 15.108 7.76839 15.1702 8 15.1702C8.23162 15.1702 8.45898 15.108 8.65834 14.9901C8.8577 14.8722 9.02175 14.703 9.13334 14.5" stroke="#1F2937" stroke-width="1.2" stroke-linecap="round" stroke-linejoin="round"/>
</svg>
