<svg width="27" height="26" viewBox="0 0 27 26" fill="none" xmlns="http://www.w3.org/2000/svg">
<g clip-path="url(#clip0_2003_795)">
<path d="M25.6813 12.6968C25.6813 19.4329 20.2205 24.8937 13.4844 24.8937C6.74821 24.8937 1.28748 19.4329 1.28748 12.6968C1.28748 5.96061 6.74821 0.499878 13.4844 0.499878C20.2205 0.499878 25.6813 5.96061 25.6813 12.6968Z" fill="#F3BA2F" stroke="white"/>
<path fill-rule="evenodd" clip-rule="evenodd" d="M13.4845 5.07867L8.80409 9.75931L10.5258 11.481L13.4845 8.52224L16.445 11.4825L18.1667 9.76099L13.4845 5.07867ZM5.86653 12.6965L7.58807 14.4181L9.30986 12.6964L7.5882 10.9749L5.86653 12.6965ZM10.5258 13.9125L13.4845 16.8712L16.4449 13.9109L18.1674 15.6316L18.1667 15.6327L13.4845 20.3146L8.80397 15.6341L8.80145 15.6317L10.5258 13.9125ZM17.6595 12.6973L19.381 14.4188L21.1028 12.6973L19.381 10.9756L17.6595 12.6973ZM12.1934 12.2398L13.4845 10.9487L15.2316 12.6958H15.2309L15.2324 12.6966L15.2316 12.6976L13.4845 14.4446L11.739 12.6991L11.7366 12.6966L11.739 12.6942L12.0451 12.3882L12.1933 12.2398H12.1934Z" fill="white"/>
</g>
<defs>
<clipPath id="clip0_2003_795">
<rect width="25.3938" height="25.3938" fill="white" transform="translate(0.787582)"/>
</clipPath>
</defs>
</svg>
