<svg width="26" height="26" viewBox="0 0 26 26" fill="none" xmlns="http://www.w3.org/2000/svg">
<path d="M25.0752 12.6969C25.0752 19.4331 19.6144 24.8938 12.8783 24.8938C6.14212 24.8938 0.681381 19.4331 0.681381 12.6969C0.681381 5.96074 6.14212 0.5 12.8783 0.5C19.6144 0.5 25.0752 5.96074 25.0752 12.6969Z" fill="#272D63" stroke="white"/>
<path d="M16.223 6.03091L15.6675 8.2862C17.3847 8.88613 18.6489 9.78602 18.4021 11.4525C18.3307 11.9588 18.1561 12.4659 17.7958 12.8491C17.4871 13.1801 17.0046 13.3554 16.5928 13.4903C16.0989 13.6574 15.5824 13.7481 15.0612 13.7594C14.712 13.7594 14.3724 13.749 14.0232 13.7181C13.4582 13.676 12.8821 13.6244 12.3274 13.5007C12.1528 13.4594 11.9878 13.4284 11.8338 13.3864L11.0831 16.4178L10.6411 18.0731L10.0856 20.3395L8.7191 19.9983L9.28491 17.7113C8.9659 17.6287 8.63657 17.5359 8.30804 17.4526L6.52968 17.0082L7.20817 15.4449C7.20817 15.4449 8.21599 15.7147 8.20488 15.694C8.5961 15.7869 8.76036 15.5282 8.83178 15.3631L9.60312 12.2587L9.9626 10.8208L10.3745 9.16546C10.3943 8.87581 10.2919 8.50363 9.73644 8.36873C9.75707 8.35841 8.73973 8.12034 8.73973 8.12034L9.09921 6.65147L10.9799 7.12761C11.2688 7.19903 11.5561 7.26172 11.8544 7.33393L12.4099 5.07864L13.7764 5.41987L13.2321 7.63389C13.5915 7.71722 13.9621 7.79975 14.3216 7.89259L14.8557 5.68889L16.223 6.03091ZM16.1103 14.2045C16.4904 14.1418 16.953 13.9871 17.2816 13.8522C17.2919 13.8419 17.3133 13.8419 17.3228 13.8316C18.0323 14.4624 18.3711 15.4869 17.9085 16.8011C17.1784 18.9325 15.4215 19.1079 13.0979 18.6635L12.5329 20.9498L11.1759 20.6085L11.6997 18.4255L11.7203 18.3533L12.1322 16.6765C13.3447 16.9463 14.9795 17.1217 15.2874 15.8591C15.4524 15.187 15.1334 14.7005 14.6192 14.349L15.154 14.3172C15.535 14.2974 15.7294 14.2664 16.1103 14.2037V14.2045ZM15.7087 11.4311C16.1103 9.80665 13.6217 9.45511 12.8519 9.24878L12.1727 12C12.944 12.1968 15.3286 12.9833 15.7087 11.4311Z" fill="#FEFEFE"/>
</svg>
