<svg width="30" height="30" viewBox="0 0 30 30" fill="none" xmlns="http://www.w3.org/2000/svg">
<path d="M1.75781 15C1.75781 12.6341 2.38898 10.3126 3.58313 8.28655C4.42535 6.85751 5.53125 5.60015 6.83016 4.57991L6.42305 7.89585L8.16773 8.11007L8.9175 2.00355L2.81109 1.25372L2.59687 2.99841L5.53986 3.35976C4.15758 4.48488 2.97785 5.85157 2.06883 7.39394C0.715371 9.69034 0 12.3204 0 15C0 19.0066 1.56023 22.7734 4.39336 25.6066C7.22654 28.4397 10.9934 30 15 30V28.2422C11.4629 28.2422 8.13744 26.8648 5.63637 24.3636C3.13523 21.8625 1.75781 18.5371 1.75781 15Z" fill="#EB6825"/>
<path d="M27.9312 22.6061C29.2846 20.3096 30 17.6796 30 15C30 10.9934 28.4398 7.22654 25.6066 4.39336C22.7735 1.56029 19.0066 0 15 0V1.75781C18.5371 1.75781 21.8626 3.13523 24.3636 5.63637C26.8648 8.1375 28.2422 11.4629 28.2422 15C28.2422 17.3659 27.611 19.6874 26.4169 21.7134C25.5746 23.1425 24.4688 24.3998 23.1698 25.4201L23.577 22.1041L21.8323 21.8899L21.0825 27.9964L27.189 28.7463L27.4032 27.0016L24.4602 26.6402C25.8424 25.5151 27.0221 24.1484 27.9312 22.6061Z" fill="#EB6825"/>
<path d="M14.3785 15.6214L12.514 13.757L11.2711 15L14.3785 18.1073L18.7289 13.757L17.486 12.5141L14.3785 15.6214Z" fill="#EB6825"/>
<path d="M15 7.08984C10.6383 7.08984 7.08984 10.6383 7.08984 15C7.08984 19.3617 10.6383 22.9102 15 22.9102C19.3617 22.9102 22.9102 19.3617 22.9102 15C22.9102 10.6383 19.3617 7.08984 15 7.08984ZM15 21.1523C11.6076 21.1523 8.84766 18.3924 8.84766 15C8.84766 11.6076 11.6076 8.84766 15 8.84766C18.3924 8.84766 21.1523 11.6076 21.1523 15C21.1523 18.3924 18.3924 21.1523 15 21.1523Z" fill="#EB6825"/>
</svg>
