<svg width="216" height="66" viewBox="0 0 216 66" fill="none" xmlns="http://www.w3.org/2000/svg">
<path d="M0 47.7428V19.5694C0 19.1801 0.207518 18.8217 0.54384 18.6259L16.9855 9.09699C17.3242 8.90111 17.744 8.90111 18.0803 9.09938L42.3361 23.3652C43.054 23.788 43.0516 24.8272 42.3313 25.2476L35.6955 29.1103C35.3568 29.3085 34.9346 29.3061 34.5959 29.1079L10.7909 15.0761C10.4546 14.8779 10.0372 14.8755 9.69849 15.069L9.46234 15.2051C9.12364 15.3986 8.91612 15.7593 8.91612 16.1511V43.8371C8.91612 44.2265 8.7086 44.5848 8.37228 44.7807L1.63391 48.6864C0.906401 49.1068 0 48.5813 0 47.7428Z" fill="white"/>
<path d="M31.1586 0.146277L55.5598 14.1565C55.8961 14.35 56.106 14.7083 56.1084 15.0977L56.1848 34.1196C56.1871 34.5138 55.9772 34.8769 55.6362 35.0704L31.2158 49.0448C30.4907 49.458 29.5915 48.9397 29.5867 48.1036L29.5414 40.4213C29.539 40.0271 29.7489 39.6616 30.0924 39.4657L54.0857 25.7636C54.4268 25.5702 54.6367 25.2071 54.6367 24.8153V24.543C54.6367 24.1512 54.4268 23.7905 54.0881 23.597L30.1043 9.83281C29.768 9.63932 29.5581 9.281 29.5557 8.88924L29.5247 1.09701C29.5223 0.256161 30.4311 -0.271761 31.1586 0.146277Z" fill="white"/>
<path d="M57.2633 50.9367L32.998 65.1835C32.6616 65.3794 32.249 65.3841 31.9103 65.1906L15.3875 55.8051C15.0465 55.6116 14.8365 55.2485 14.8365 54.8544L14.8604 26.6882C14.8604 25.8545 15.7596 25.3289 16.4848 25.7398L23.1659 29.5189C23.5094 29.7124 23.7193 30.0755 23.7193 30.4696L23.6716 58.1318C23.6716 58.5235 23.8791 58.8866 24.2202 59.0801L24.4563 59.2139C24.795 59.4074 25.2125 59.405 25.5488 59.2091L49.3967 45.2084C49.733 45.0126 50.148 45.0078 50.4843 45.2013L57.2537 49.0472C57.9788 49.4629 57.986 50.5115 57.2633 50.9367Z" fill="white"/>
<path d="M88.6556 44.3724L74.5682 25.3863V44.3724H70.1125V17.8975H74.4943L88.6556 36.9218V17.8975H93.0373V44.3724H88.6556Z" fill="white"/>
<path d="M116.11 44.3722H111.766V40.4379C110.407 43.2376 107.876 44.4845 104.591 44.5227C99.9831 44.5227 97.2281 41.5726 97.2281 36.7687V24.2491H101.572V35.5576C101.572 38.5842 103.346 40.4355 106.254 40.4355C109.729 40.3591 111.769 37.6741 111.769 34.1578V24.2491H116.112V44.3722H116.11Z" fill="white"/>
<path d="M141.904 21.8677L139.3 25.1212C137.375 23.0406 134.617 21.7554 131.936 21.7554C126.648 21.7554 122.495 25.8402 122.495 31.0597C122.495 36.2792 126.65 40.4023 131.936 40.4023C134.579 40.4023 137.298 39.1912 139.3 37.2634L141.942 40.2136C139.261 42.8603 135.447 44.5635 131.707 44.5635C123.965 44.5635 117.961 38.7015 117.961 31.1003C117.961 23.5733 124.041 17.7876 131.857 17.7876C135.598 17.7828 139.338 19.3355 141.904 21.8677Z" fill="white"/>
<path d="M163.772 31.8527V44.3724H159.429V33.0639C159.429 30.0373 157.616 28.186 154.594 28.186C151.006 28.2242 148.853 30.9092 148.853 34.4637V44.3724H144.509V16.3089H148.853V28.1836C150.288 25.3481 152.855 24.0987 156.292 24.0987C160.977 24.1011 163.772 27.0489 163.772 31.8527Z" fill="white"/>
<path d="M179.746 41.9142C178.31 43.6914 176.009 44.5609 173.099 44.5609C168.755 44.5609 166.036 41.8759 166.036 38.3214C166.036 34.6522 168.793 32.3088 173.626 32.2706H179.706V31.6663C179.706 29.1317 178.081 27.6196 174.909 27.6196C172.984 27.6196 170.981 28.3005 168.979 29.6621L167.207 26.6331C170.003 24.9681 172.042 24.0986 175.856 24.0986C181.03 24.0986 183.937 26.7454 183.975 31.1718L184.014 44.3722H179.746V41.9142ZM179.708 37.299V35.4453H174.27C171.439 35.4453 170.115 36.2026 170.115 38.1303C170.115 39.9458 171.586 41.1187 174.005 41.1187C177.104 41.1187 179.482 39.4919 179.708 37.299Z" fill="white"/>
<path d="M192.624 18.5019C192.624 20.014 191.53 21.1104 190.094 21.1104C188.658 21.1104 187.563 20.014 187.563 18.5019C187.563 16.9516 188.658 15.8551 190.094 15.8551C191.53 15.8551 192.624 16.9516 192.624 18.5019Z" fill="white"/>
<path d="M192.247 24.2516H187.942V44.3724H192.247V24.2516Z" fill="white"/>
<path d="M216 31.8526V44.3722H211.656V33.0637C211.656 30.0371 209.844 28.1858 206.821 28.1858C203.499 28.224 201.421 30.5316 201.118 33.6704V44.3746H196.775V24.2538H201.118V28.1117C202.554 25.3121 205.121 24.1033 208.52 24.1033C213.207 24.1009 216 27.0487 216 31.8526Z" fill="white"/>
</svg>
