<svg width="20" height="21" viewBox="0 0 20 21" fill="none" xmlns="http://www.w3.org/2000/svg">
<path d="M10.8624 2.33307C11.0976 2.33307 11.308 2.47947 11.3872 2.69867L11.7668 3.75113C11.8825 4.0718 12.1543 4.30274 12.4751 4.41785C12.877 4.56182 13.3208 4.56452 13.6981 4.36483L14.4143 3.98585C14.5216 3.92898 14.6445 3.90845 14.7645 3.92734C14.8845 3.94624 14.9952 4.00354 15.0798 4.09065L16.2366 5.28663C16.3902 5.44583 16.4334 5.67863 16.347 5.88183L15.9431 6.82845C15.8087 7.14358 15.8323 7.49984 15.9766 7.8106C16.1519 8.19245 16.4442 8.51202 16.8304 8.6775L17.6638 9.03459C17.8797 9.12659 18.0133 9.34259 17.9989 9.57378L17.8933 11.2338C17.8861 11.3416 17.8474 11.445 17.782 11.531C17.7166 11.617 17.6273 11.682 17.5254 11.7178L16.6353 12.0341C16.3425 12.1382 16.1347 12.3904 16.0406 12.6865C15.9076 13.0875 15.9017 13.5256 16.0758 13.9105L16.4862 14.8177C16.5345 14.924 16.5475 15.0429 16.5233 15.157C16.4991 15.2712 16.439 15.3746 16.3518 15.4521L15.051 16.6137C14.9654 16.6899 14.8585 16.7381 14.7447 16.7518C14.6309 16.7655 14.5156 16.7441 14.4143 16.6905L13.7025 16.3134C13.3091 16.1049 12.8416 16.1152 12.4255 16.2737C12.054 16.4128 11.7623 16.7079 11.6276 17.081L11.32 17.9329C11.2814 18.0383 11.2119 18.1297 11.1206 18.1949C11.0292 18.2602 10.9202 18.2963 10.808 18.2985L9.28804 18.3329C9.17282 18.3359 9.05948 18.3031 8.96364 18.2391C8.8678 18.1751 8.79416 18.0829 8.75286 17.9753L8.37438 16.9737C8.22599 16.581 7.90819 16.2797 7.5193 16.1217C7.20127 15.9841 6.84037 15.9662 6.52171 16.1024L5.50497 16.5369C5.40482 16.5796 5.29441 16.5923 5.18718 16.5734C5.07994 16.5545 4.98052 16.5049 4.90099 16.4305L3.77623 15.3753C3.69249 15.2971 3.63546 15.1945 3.61321 15.0821C3.59096 14.9697 3.60461 14.8531 3.65224 14.7489L4.0684 13.8422C4.21827 13.5157 4.2045 13.1405 4.06422 12.8097C3.90144 12.4073 3.5777 12.0859 3.16237 11.9594L2.39228 11.725C2.27589 11.6898 2.17436 11.6171 2.10348 11.5183C2.0326 11.4195 1.99633 11.3001 2.00029 11.1786L2.05629 9.64178C2.06028 9.54151 2.0916 9.44424 2.14687 9.36049C2.20214 9.27673 2.27926 9.20968 2.36988 9.16659L3.30774 8.71613C3.66626 8.54393 3.91816 8.2196 4.05622 7.8466C4.19922 7.48015 4.20931 7.0697 4.04104 6.71414L3.65624 5.90103C3.60682 5.79653 3.59181 5.67906 3.61337 5.5655C3.63494 5.45194 3.69195 5.34814 3.77623 5.26904L4.89939 4.20825C4.97813 4.13399 5.07664 4.08406 5.18309 4.06447C5.28953 4.04489 5.39936 4.05648 5.49937 4.09785L6.524 4.5211C6.83258 4.64857 7.18019 4.60599 7.4753 4.44984C7.87522 4.2372 8.2231 3.92586 8.37595 3.4995L8.66246 2.70027C8.7015 2.59248 8.77285 2.49937 8.86677 2.43365C8.96069 2.36793 9.07261 2.33281 9.18725 2.33307H10.8624ZM10.0192 7.9482C8.68566 7.9482 7.6049 9.01619 7.6049 10.3346C7.6049 11.653 8.68566 12.7217 10.0192 12.7217C11.352 12.7217 12.4327 11.653 12.4327 10.3346C12.4327 9.01619 11.3528 7.9482 10.0192 7.9482Z" fill="white"/>
</svg>
