<svg width="20" height="21" viewBox="0 0 20 21" fill="none" xmlns="http://www.w3.org/2000/svg">
<path fill-rule="evenodd" clip-rule="evenodd" d="M2 4.99974C2 4.29249 2.28095 3.61421 2.78105 3.11412C3.28115 2.61402 3.95942 2.33307 4.66667 2.33307H15.3333C16.0406 2.33307 16.7189 2.61402 17.219 3.11412C17.719 3.61421 18 4.29249 18 4.99974V15.6664C18 16.3736 17.719 17.0519 17.219 17.552C16.7189 18.0521 16.0406 18.3331 15.3333 18.3331H4.66667C3.95942 18.3331 3.28115 18.0521 2.78105 17.552C2.28095 17.0519 2 16.3736 2 15.6664V4.99974ZM10.8889 6.77751C10.8889 6.54177 10.7952 6.31567 10.6285 6.14897C10.4618 5.98228 10.2357 5.88862 10 5.88862C9.76425 5.88862 9.53816 5.98228 9.37146 6.14897C9.20476 6.31567 9.11111 6.54177 9.11111 6.77751V13.8886C9.11111 14.1244 9.20476 14.3505 9.37146 14.5172C9.53816 14.6839 9.76425 14.7775 10 14.7775C10.2357 14.7775 10.4618 14.6839 10.6285 14.5172C10.7952 14.3505 10.8889 14.1244 10.8889 13.8886V6.77751ZM7.33333 9.44418C7.33333 9.20843 7.23968 8.98234 7.07298 8.81564C6.90628 8.64894 6.68019 8.55529 6.44444 8.55529C6.2087 8.55529 5.9826 8.64894 5.81591 8.81564C5.64921 8.98234 5.55556 9.20843 5.55556 9.44418V13.8886C5.55556 14.1244 5.64921 14.3505 5.81591 14.5172C5.9826 14.6839 6.2087 14.7775 6.44444 14.7775C6.68019 14.7775 6.90628 14.6839 7.07298 14.5172C7.23968 14.3505 7.33333 14.1244 7.33333 13.8886V9.44418ZM14.4444 12.1108C14.4444 11.8751 14.3508 11.649 14.1841 11.4823C14.0174 11.3156 13.7913 11.222 13.5556 11.222C13.3198 11.222 13.0937 11.3156 12.927 11.4823C12.7603 11.649 12.6667 11.8751 12.6667 12.1108V13.8886C12.6667 14.1244 12.7603 14.3505 12.927 14.5172C13.0937 14.6839 13.3198 14.7775 13.5556 14.7775C13.7913 14.7775 14.0174 14.6839 14.1841 14.5172C14.3508 14.3505 14.4444 14.1244 14.4444 13.8886V12.1108Z" fill="white"/>
</svg>
