<svg width="16" height="16" viewBox="0 0 16 16" fill="none" xmlns="http://www.w3.org/2000/svg">
<path d="M5 10.1667C4.87333 10.1667 4.74666 10.12 4.64666 10.02C4.45333 9.82667 4.45333 9.50667 4.64666 9.31334L6.78 7.18001C6.88666 7.07334 7.02666 7.02001 7.18 7.03334C7.32666 7.04667 7.46 7.12667 7.54666 7.25334L8.27333 8.34667L10.64 5.98001C10.8333 5.78667 11.1533 5.78667 11.3467 5.98001C11.54 6.17334 11.54 6.49334 11.3467 6.68667L8.54666 9.48667C8.44 9.59334 8.3 9.64667 8.14666 9.63334C8 9.62001 7.86666 9.54001 7.78 9.41334L7.05333 8.32001L5.35333 10.02C5.25333 10.12 5.12666 10.1667 5 10.1667Z" fill="#A1247C"/>
<path d="M11 8.16666C10.7267 8.16666 10.5 7.94 10.5 7.66666V6.83333H9.66667C9.39334 6.83333 9.16667 6.60666 9.16667 6.33333C9.16667 6.05999 9.39334 5.83333 9.66667 5.83333H11C11.2733 5.83333 11.5 6.05999 11.5 6.33333V7.66666C11.5 7.94 11.2733 8.16666 11 8.16666Z" fill="#A1247C"/>
<path d="M9.99999 15.1667H5.99999C2.37999 15.1667 0.833328 13.62 0.833328 9.99999V5.99999C0.833328 2.37999 2.37999 0.833328 5.99999 0.833328H9.99999C13.62 0.833328 15.1667 2.37999 15.1667 5.99999V9.99999C15.1667 13.62 13.62 15.1667 9.99999 15.1667ZM5.99999 1.83333C2.92666 1.83333 1.83333 2.92666 1.83333 5.99999V9.99999C1.83333 13.0733 2.92666 14.1667 5.99999 14.1667H9.99999C13.0733 14.1667 14.1667 13.0733 14.1667 9.99999V5.99999C14.1667 2.92666 13.0733 1.83333 9.99999 1.83333H5.99999Z" fill="#A1247C"/>
</svg>
