<svg width="12" height="12" viewBox="0 0 12 12" fill="none" xmlns="http://www.w3.org/2000/svg">
<path d="M4.45499 10.335C4.35999 10.335 4.26499 10.3 4.18999 10.225C4.04499 10.08 4.04499 9.84001 4.18999 9.69501L7.44999 6.43501C7.68999 6.19501 7.68999 5.80501 7.44999 5.56501L4.18999 2.30501C4.04499 2.16001 4.04499 1.92001 4.18999 1.77501C4.33499 1.63001 4.57499 1.63001 4.71999 1.77501L7.97999 5.03501C8.23499 5.29001 8.37999 5.63501 8.37999 6.00001C8.37999 6.36501 8.23999 6.71001 7.97999 6.96501L4.71999 10.225C4.64499 10.295 4.54999 10.335 4.45499 10.335Z" fill="#718096"/>
</svg>
