<svg width="20" height="21" viewBox="0 0 20 21" fill="none" xmlns="http://www.w3.org/2000/svg">
<path d="M6.75 10.3331C7.61195 10.3331 8.4386 9.99066 9.0481 9.38117C9.65759 8.77167 10 7.94502 10 7.08307C10 6.22112 9.65759 5.39446 9.0481 4.78497C8.4386 4.17548 7.61195 3.83307 6.75 3.83307C5.88805 3.83307 5.0614 4.17548 4.4519 4.78497C3.84241 5.39446 3.5 6.22112 3.5 7.08307C3.5 7.94502 3.84241 8.77167 4.4519 9.38117C5.0614 9.99066 5.88805 10.3331 6.75 10.3331ZM12.437 15.4781C12.967 15.6951 13.641 15.8331 14.499 15.8331C18.499 15.8331 18.499 12.8331 18.499 12.8331C18.499 12.4354 18.3411 12.054 18.06 11.7728C17.7789 11.4915 17.3977 11.3333 17 11.3331H12C12.393 11.8091 13.001 12.4181 13.001 13.0831V13.4391C12.999 13.5233 12.9933 13.6074 12.984 13.6911C12.9165 14.3159 12.7303 14.9222 12.437 15.4781ZM17 7.83307C17 8.49611 16.7366 9.13199 16.2678 9.60084C15.7989 10.0697 15.163 10.3331 14.5 10.3331C13.837 10.3331 13.2011 10.0697 12.7322 9.60084C12.2634 9.13199 12 8.49611 12 7.83307C12 7.17003 12.2634 6.53414 12.7322 6.0653C13.2011 5.59646 13.837 5.33307 14.5 5.33307C15.163 5.33307 15.7989 5.59646 16.2678 6.0653C16.7366 6.53414 17 7.17003 17 7.83307ZM1.5 13.3331C1.5 12.8026 1.71071 12.2939 2.08579 11.9189C2.46086 11.5438 2.96957 11.3331 3.5 11.3331H10C10.5304 11.3331 11.0391 11.5438 11.4142 11.9189C11.7893 12.2939 12 12.8026 12 13.3331C12 13.3331 12 17.3331 6.75 17.3331C1.5 17.3331 1.5 13.3331 1.5 13.3331ZM13 13.4391L12.997 13.5031L12.999 13.4391H13Z" fill="white"/>
</svg>
