<svg width="20" height="21" viewBox="0 0 20 21" fill="none" xmlns="http://www.w3.org/2000/svg">
<path fill-rule="evenodd" clip-rule="evenodd" d="M18.4413 18.135C18.3075 18.4466 18.0715 18.5602 17.7344 18.5516C17.0776 18.5352 16.4204 18.5471 15.7632 18.5465C15.3652 18.546 15.1472 18.3297 15.1472 17.933C15.1466 15.1163 15.1466 11.6506 15.1472 8.83308C15.1472 8.43596 15.3638 8.22114 15.7635 8.22035C16.4207 8.21989 17.0779 8.23193 17.7348 8.21541C18.072 8.20677 18.3078 8.32036 18.4415 8.63197C18.4413 11.5839 18.4413 15.184 18.4413 18.135Z" fill="white"/>
<path fill-rule="evenodd" clip-rule="evenodd" d="M18.4415 6.02024C18.3623 6.12936 18.3027 6.26503 18.1996 6.34266C17.863 6.59624 17.3939 6.36905 17.3443 5.94001C17.2842 5.4236 17.2268 4.90672 17.1325 4.35926C17.1192 4.38766 17.1091 4.41806 17.0922 4.4443C15.2601 7.29709 14.4999 7.83308 11.4999 9.83308C9.85313 10.6827 6.41352 12.4744 4.59737 12.8634C3.64465 13.0676 2.6828 13.194 1.7066 13.1858C1.56986 13.1844 1.43095 13.1782 1.29684 13.1532C1.0712 13.1115 0.953898 12.9441 0.870084 12.747V12.4726C1.01964 12.15 1.26827 12.063 1.61925 12.0756C2.57801 12.1093 3.23326 12.0559 4.16393 11.8331C8.01346 10.9117 11.662 9.03683 14.3922 6.13682C15.0877 5.39833 15.6983 4.59235 16.2362 3.73145C16.2689 3.67882 16.2984 3.62372 16.3433 3.54485C16.2786 3.55705 16.2371 3.56183 16.1968 3.57325C15.6258 3.73546 15.0563 3.90338 14.4841 4.05959C14.0622 4.17488 13.7066 3.8662 13.7712 3.44824C13.806 3.2226 13.9436 3.07428 14.1585 3.0124C15.2333 2.70217 16.3092 2.39441 17.3865 2.09271C17.7126 2.00134 18.0253 2.22528 18.0646 2.56762C18.1813 3.57238 18.2937 4.57757 18.4091 5.58233C18.4137 5.62632 18.4304 5.66892 18.4414 5.71198C18.4411 5.81461 18.4415 5.9173 18.4415 6.02024Z" fill="white"/>
<path fill-rule="evenodd" clip-rule="evenodd" d="M0.870084 14.7709C1.00328 14.4587 1.23803 14.345 1.57618 14.3544C2.23799 14.3713 2.90086 14.3585 3.56314 14.3595C3.94497 14.3601 4.16477 14.5851 4.16477 14.9702C4.16492 15.7982 4.16486 17.1069 4.16393 17.9351C4.16378 18.3284 3.94308 18.546 3.5461 18.5469C2.8894 18.5473 2.23253 18.5358 1.57598 18.5515C1.23968 18.5592 1.00276 18.4478 0.869568 18.135C0.869722 17.1739 0.870084 15.7321 0.870084 14.7709Z" fill="white"/>
<path fill-rule="evenodd" clip-rule="evenodd" d="M13.6795 15.3206C13.6795 16.1784 13.6795 17.0367 13.6793 17.8945C13.6792 18.3441 13.4787 18.5462 13.0339 18.5466C12.3588 18.5466 11.6841 18.5471 11.0091 18.5462C10.6024 18.5457 10.3851 18.3289 10.3851 17.9197C10.3842 16.1812 10.3833 13.7884 10.3845 12.0502C10.3847 11.666 10.6113 11.4409 10.9917 11.4409C11.678 11.4404 12.3644 11.4395 13.0507 11.441C13.4721 11.4415 13.6793 11.6512 13.6795 12.0756C13.6804 12.9391 13.6795 14.4572 13.6795 15.3206Z" fill="white"/>
<path fill-rule="evenodd" clip-rule="evenodd" d="M5.63115 16.3289C5.63115 15.7973 5.62992 14.3646 5.63115 13.8331C5.63223 13.4483 5.85247 13.2282 6.23895 13.2273C6.91912 13.2258 7.59946 13.2253 8.27991 13.2273C8.71006 13.2287 8.92599 13.4446 8.92627 13.8701C8.92642 14.9105 8.92658 16.8519 8.92581 17.8923C8.92534 18.3378 8.71868 18.5464 8.27818 18.5468C7.59785 18.5468 6.9174 18.5477 6.23722 18.5463C5.84844 18.5457 5.63235 18.3295 5.63144 17.9416C5.6302 17.4038 5.63115 16.8665 5.63115 16.3289Z" fill="white"/>
</svg>
