<svg width="30" height="30" viewBox="0 0 30 30" fill="none" xmlns="http://www.w3.org/2000/svg">
<path d="M27.5581 16.0465H2.44186C1.79446 16.0458 1.1738 15.7883 0.716019 15.3305C0.258242 14.8727 0.000738613 14.2521 0 13.6047V9.41863C0.000738613 8.77124 0.258242 8.15057 0.716019 7.69279C1.1738 7.23502 1.79446 6.97751 2.44186 6.97678H27.5581C28.2055 6.97751 28.8261 7.23502 29.2839 7.69279C29.7417 8.15057 29.9992 8.77124 29.9999 9.41863V13.6047C29.9992 14.2521 29.7417 14.8727 29.2839 15.3305C28.8261 15.7883 28.2055 16.0458 27.5581 16.0465ZM2.44186 9.06979C2.34934 9.06979 2.26061 9.10655 2.19519 9.17197C2.12977 9.23739 2.09302 9.32611 2.09302 9.41863V13.6047C2.09302 13.6972 2.12977 13.7859 2.19519 13.8513C2.26061 13.9168 2.34934 13.9535 2.44186 13.9535H27.5581C27.6506 13.9535 27.7393 13.9168 27.8047 13.8513C27.8702 13.7859 27.9069 13.6972 27.9069 13.6047V9.41863C27.9069 9.32611 27.8702 9.23739 27.8047 9.17197C27.7393 9.10655 27.6506 9.06979 27.5581 9.06979H2.44186Z" fill="#4E2C9E"/>
<path d="M24.0696 30H5.9301C4.91263 29.9993 3.93706 29.5948 3.2176 28.8753C2.49815 28.1558 2.09363 27.1803 2.0929 26.1628V15C2.0929 14.7225 2.20315 14.4563 2.39941 14.26C2.59567 14.0638 2.86185 13.9535 3.1394 13.9535H26.8603C27.1378 13.9535 27.404 14.0638 27.6003 14.26C27.7965 14.4563 27.9068 14.7225 27.9068 15V26.1628C27.9061 27.1803 27.5015 28.1558 26.7821 28.8753C26.0626 29.5948 25.0871 29.9993 24.0696 30ZM4.18591 16.0465V26.1628C4.18665 26.6252 4.37065 27.0684 4.69759 27.3953C5.02453 27.7222 5.46774 27.9062 5.9301 27.907H24.0696C24.532 27.9062 24.9752 27.7222 25.3021 27.3953C25.629 27.0684 25.813 26.6252 25.8138 26.1628V16.0465H4.18591Z" fill="#4E2C9E"/>
<path d="M14.9998 9.06981H10.4329C9.51912 9.07077 8.61934 8.84563 7.81372 8.41446C7.0081 7.98329 6.32169 7.35948 5.81567 6.59865C5.38966 5.95942 5.14511 5.21656 5.10808 4.44927C5.07106 3.68199 5.24295 2.91904 5.60544 2.24176C5.96792 1.56448 6.50741 0.998269 7.16638 0.603486C7.82535 0.208702 8.57911 0.000147546 9.34729 5.60644e-05C10.4019 -0.00369371 11.4333 0.310504 12.3067 0.901661C13.1801 1.49282 13.8551 2.33349 14.2436 3.314L15.971 7.63958C16.0335 7.79807 16.0563 7.96942 16.0375 8.13875C16.0187 8.30807 15.9589 8.47024 15.8632 8.61118C15.7674 8.75212 15.6388 8.86757 15.4883 8.94749C15.3379 9.02742 15.1702 9.0694 14.9998 9.06981ZM9.34729 2.09307C8.95745 2.09311 8.57493 2.19898 8.24056 2.3994C7.90619 2.59982 7.63251 2.88727 7.44872 3.23106C7.26493 3.57486 7.17794 3.9621 7.19702 4.35147C7.2161 4.74084 7.34054 5.11773 7.55706 5.44191C7.87272 5.915 8.30046 6.30271 8.80221 6.5705C9.30395 6.83829 9.86413 6.97786 10.4329 6.97679H13.4552L12.2998 4.09121C12.0658 3.49983 11.6588 2.9928 11.132 2.63633C10.6053 2.27986 9.9833 2.09053 9.34729 2.09307Z" fill="#4E2C9E"/>
<path d="M19.0897 9.06981H14.5214C14.35 9.0706 14.1811 9.02929 14.0294 8.94952C13.8778 8.86975 13.748 8.75397 13.6516 8.61233C13.5551 8.47069 13.4949 8.30754 13.4763 8.1372C13.4576 7.96686 13.4811 7.79455 13.5446 7.6354L15.2721 3.30982C15.6615 2.3292 16.3377 1.48881 17.2121 0.898362C18.0866 0.307916 19.1188 -0.00514158 20.1739 6.3877e-05C20.9421 0.000155358 21.6958 0.20871 22.3548 0.603494C23.0138 0.998277 23.5533 1.56449 23.9158 2.24177C24.2782 2.91904 24.4501 3.68199 24.4131 4.44928C24.3761 5.21657 24.1315 5.95942 23.7055 6.59865C23.1997 7.35938 22.5135 7.98313 21.7082 8.4143C20.9028 8.84548 20.0032 9.07067 19.0897 9.06981ZM16.0674 6.97679H19.0897C19.6583 6.97789 20.2183 6.83832 20.7198 6.57051C21.2213 6.30271 21.6488 5.91499 21.9641 5.44191C22.1811 5.11784 22.306 4.74087 22.3253 4.35132C22.3447 3.96177 22.2577 3.57429 22.0739 3.23033C21.89 2.88637 21.6161 2.59885 21.2814 2.39854C20.9467 2.19822 20.5639 2.09264 20.1739 2.09308C19.5379 2.09073 18.916 2.28014 18.3893 2.63658C17.8626 2.99302 17.4556 3.49995 17.2214 4.09122L16.0674 6.97679Z" fill="#4E2C9E"/>
<path d="M18.4883 30H11.5116C11.234 30 10.9679 29.8897 10.7716 29.6935C10.5753 29.4972 10.4651 29.231 10.4651 28.9535V8.02329C10.4651 7.74573 10.5753 7.47955 10.7716 7.28329C10.9679 7.08703 11.234 6.97678 11.5116 6.97678H18.4883C18.7659 6.97678 19.0321 7.08703 19.2283 7.28329C19.4246 7.47955 19.5348 7.74573 19.5348 8.02329V28.9535C19.5348 29.231 19.4246 29.4972 19.2283 29.6935C19.0321 29.8897 18.7659 30 18.4883 30ZM12.5581 27.907H17.4418V9.06979H12.5581V27.907Z" fill="#4E2C9E"/>
</svg>
