<svg width="922" height="217" viewBox="0 0 922 217" fill="none" xmlns="http://www.w3.org/2000/svg">
<path d="M30 115C16 118 4.5 140.5 0 146V217H921.5V156C899.833 154.833 854.6 152.6 847 153C837.5 153.5 771.5 60.5 760.5 53.5C749.5 46.5 717.5 51 706.5 50.5C695.5 50 684.5 38.5 673 17.5C661.5 -3.50001 645.5 0.499994 632 0.999994C618.5 1.49999 537.5 122 525.5 129C513.5 136 455 134.5 437.5 129C420 123.5 386.5 77 371.5 67.5C356.5 58 330.5 74 323 73.5C315.5 73 274.5 129.5 261 134.5C247.5 139.5 203 138 194.5 134.5C186 131 156 100 143.5 88C131 76 107 75.5 97 77C87.1124 78.4831 82.6018 87.7875 74.7683 103.946L74.5 104.5C66.5 121 44 112 30 115Z" fill="url(#paint0_linear_2003_442)"/>
<defs>
<linearGradient id="paint0_linear_2003_442" x1="461" y1="-12.5" x2="460.75" y2="217" gradientUnits="userSpaceOnUse">
<stop stop-color="#A1247C" stop-opacity="0.5"/>
<stop offset="1" stop-color="#A1247C" stop-opacity="0"/>
</linearGradient>
</defs>
</svg>
