<svg width="923" height="158" viewBox="0 0 923 158" fill="none" xmlns="http://www.w3.org/2000/svg">
<path d="M1 147C5.5 141.5 17 119 31 116C45 113 67.5 122 75.5 105.5C83.5 89 88 79.5 98 78C108 76.5 132 77 144.5 89C157 101 187 132 195.5 135.5C204 139 248.5 140.5 262 135.5C275.5 130.5 316.5 74 324 74.5C331.5 75 357.5 59 372.5 68.5C387.5 78 421 124.5 438.5 130C456 135.5 514.5 137 526.5 130C538.5 123 619.5 2.49999 633 1.99999C646.5 1.49999 662.5 -2.50001 674 18.5C685.5 39.5 696.5 51 707.5 51.5C718.5 52 750.5 47.5 761.5 54.5C772.5 61.5 838.5 154.5 848 154C855.6 153.6 900.833 155.833 922.5 157" stroke="#A1247C"/>
</svg>
