<svg width="8" height="8" viewBox="0 0 8 8" fill="none" xmlns="http://www.w3.org/2000/svg">
<g clip-path="url(#clip0_2003_807)">
<path d="M5.17004 0.953937C5.05635 0.837592 4.92055 0.745144 4.77063 0.682027C4.6207 0.618909 4.45967 0.586395 4.297 0.586395C4.13434 0.586395 3.97331 0.618909 3.82338 0.682027C3.67346 0.745144 3.53766 0.837592 3.42397 0.953937L3.16126 1.22341L2.78535 1.21876C2.62264 1.21683 2.46118 1.24746 2.31047 1.30885C2.15976 1.37023 2.02285 1.46113 1.90779 1.57619C1.79272 1.69126 1.70182 1.82817 1.64044 1.97888C1.57906 2.12958 1.54843 2.29104 1.55035 2.45376L1.55458 2.82967L1.28595 3.09238C1.16961 3.20607 1.07716 3.34186 1.01404 3.49179C0.950925 3.64171 0.918411 3.80274 0.918411 3.96541C0.918411 4.12808 0.950925 4.28911 1.01404 4.43903C1.07716 4.58896 1.16961 4.72475 1.28595 4.83844L1.555 5.10115L1.55035 5.47706C1.54843 5.63978 1.57906 5.80124 1.64044 5.95194C1.70182 6.10265 1.79272 6.23956 1.90779 6.35463C2.02285 6.4697 2.15976 6.56059 2.31047 6.62198C2.46118 6.68336 2.62264 6.71399 2.78535 6.71206L3.16126 6.70784L3.42397 6.97646C3.53766 7.09281 3.67346 7.18525 3.82338 7.24837C3.97331 7.31149 4.13434 7.344 4.297 7.344C4.45967 7.344 4.6207 7.31149 4.77063 7.24837C4.92055 7.18525 5.05635 7.09281 5.17004 6.97646L5.43275 6.70741L5.80865 6.71206C5.97137 6.71399 6.13283 6.68336 6.28354 6.62198C6.43424 6.56059 6.57116 6.4697 6.68622 6.35463C6.80129 6.23956 6.89219 6.10265 6.95357 5.95194C7.01495 5.80124 7.04558 5.63978 7.04365 5.47706L7.03943 5.10115L7.30806 4.83844C7.4244 4.72475 7.51685 4.58896 7.57997 4.43903C7.64308 4.28911 7.6756 4.12808 7.6756 3.96541C7.6756 3.80274 7.64308 3.64171 7.57997 3.49179C7.51685 3.34186 7.4244 3.20607 7.30806 3.09238L7.03901 2.82967L7.04365 2.45376C7.04558 2.29104 7.01495 2.12958 6.95357 1.97888C6.89219 1.82817 6.80129 1.69126 6.68622 1.57619C6.57116 1.46113 6.43424 1.37023 6.28354 1.30885C6.13283 1.24746 5.97137 1.21683 5.80865 1.21876L5.43275 1.22298L5.17004 0.954359V0.953937ZM5.29126 3.48138L4.02416 4.74848C4.00454 4.76815 3.98123 4.78375 3.95558 4.79439C3.92992 4.80504 3.90242 4.81052 3.87464 4.81052C3.84686 4.81052 3.81935 4.80504 3.7937 4.79439C3.76804 4.78375 3.74474 4.76815 3.72512 4.74848L3.09157 4.11493C3.07193 4.09529 3.05636 4.07198 3.04573 4.04633C3.03511 4.02068 3.02964 3.99318 3.02964 3.96541C3.02964 3.93764 3.03511 3.91015 3.04573 3.88449C3.05636 3.85884 3.07193 3.83553 3.09157 3.81589C3.1112 3.79626 3.13451 3.78068 3.16017 3.77006C3.18582 3.75943 3.21332 3.75396 3.24109 3.75396C3.26886 3.75396 3.29635 3.75943 3.32201 3.77006C3.34766 3.78068 3.37097 3.79626 3.39061 3.81589L3.87464 4.30035L4.99222 3.18234C5.03187 3.14269 5.08566 3.12041 5.14174 3.12041C5.19782 3.12041 5.2516 3.14269 5.29126 3.18234C5.33091 3.222 5.35319 3.27578 5.35319 3.33186C5.35319 3.38794 5.33091 3.44172 5.29126 3.48138V3.48138Z" fill="#2563EB"/>
</g>
<defs>
<clipPath id="clip0_2003_807">
<rect width="6.75787" height="6.75787" fill="white" transform="translate(0.917938 0.586487)"/>
</clipPath>
</defs>
</svg>
