<svg width="7" height="8" viewBox="0 0 7 8" fill="none" xmlns="http://www.w3.org/2000/svg">
<g clip-path="url(#clip0_2003_808)">
<path d="M4.27381 0.884753C4.16012 0.768408 4.02433 0.675961 3.8744 0.612843C3.72448 0.549726 3.56345 0.517212 3.40078 0.517212C3.23811 0.517212 3.07708 0.549726 2.92716 0.612843C2.77723 0.675961 2.64144 0.768408 2.52775 0.884753L2.26504 1.15422L1.88913 1.14958C1.72641 1.14765 1.56495 1.17828 1.41425 1.23966C1.26354 1.30105 1.12663 1.39194 1.01156 1.50701C0.896495 1.62207 0.805598 1.75899 0.744215 1.90969C0.682832 2.0604 0.652203 2.22186 0.654129 2.38458L0.658353 2.76048L0.389728 3.0232C0.273383 3.13688 0.180935 3.27268 0.117818 3.42261C0.0547003 3.57253 0.0221863 3.73356 0.0221863 3.89623C0.0221863 4.0589 0.0547003 4.21992 0.117818 4.36985C0.180935 4.51977 0.273383 4.65557 0.389728 4.76926L0.658775 5.03197L0.654129 5.40788C0.652203 5.57059 0.682832 5.73205 0.744215 5.88276C0.805598 6.03347 0.896495 6.17038 1.01156 6.28545C1.12663 6.40051 1.26354 6.49141 1.41425 6.55279C1.56495 6.61417 1.72641 6.6448 1.88913 6.64288L2.26504 6.63865L2.52775 6.90728C2.64144 7.02362 2.77723 7.11607 2.92716 7.17919C3.07708 7.24231 3.23811 7.27482 3.40078 7.27482C3.56345 7.27482 3.72448 7.24231 3.8744 7.17919C4.02433 7.11607 4.16012 7.02362 4.27381 6.90728L4.53652 6.63823L4.91243 6.64288C5.07515 6.6448 5.23661 6.61417 5.38731 6.55279C5.53802 6.49141 5.67493 6.40051 5.79 6.28545C5.90506 6.17038 5.99596 6.03347 6.05734 5.88276C6.11873 5.73205 6.14936 5.57059 6.14743 5.40788L6.14321 5.03197L6.41183 4.76926C6.52818 4.65557 6.62062 4.51977 6.68374 4.36985C6.74686 4.21992 6.77937 4.0589 6.77937 3.89623C6.77937 3.73356 6.74686 3.57253 6.68374 3.42261C6.62062 3.27268 6.52818 3.13688 6.41183 3.0232L6.14278 2.76048L6.14743 2.38458C6.14936 2.22186 6.11873 2.0604 6.05734 1.90969C5.99596 1.75899 5.90506 1.62207 5.79 1.50701C5.67493 1.39194 5.53802 1.30105 5.38731 1.23966C5.23661 1.17828 5.07515 1.14765 4.91243 1.14958L4.53652 1.1538L4.27381 0.885176V0.884753ZM4.39503 3.4122L3.12793 4.6793C3.10831 4.69896 3.08501 4.71457 3.05935 4.72521C3.0337 4.73586 3.00619 4.74134 2.97841 4.74134C2.95063 4.74134 2.92313 4.73586 2.89747 4.72521C2.87182 4.71457 2.84851 4.69896 2.82889 4.6793L2.19534 4.04575C2.17571 4.02611 2.16013 4.0028 2.14951 3.97715C2.13888 3.95149 2.13341 3.924 2.13341 3.89623C2.13341 3.86846 2.13888 3.84096 2.14951 3.81531C2.16013 3.78965 2.17571 3.76634 2.19534 3.74671C2.21498 3.72707 2.23829 3.7115 2.26394 3.70087C2.2896 3.69025 2.31709 3.68478 2.34486 3.68478C2.37263 3.68478 2.40013 3.69025 2.42578 3.70087C2.45144 3.7115 2.47475 3.72707 2.49438 3.74671L2.97841 4.23116L4.09599 3.11316C4.13565 3.07351 4.18943 3.05123 4.24551 3.05123C4.30159 3.05123 4.35538 3.07351 4.39503 3.11316C4.43468 3.15281 4.45696 3.2066 4.45696 3.26268C4.45696 3.31876 4.43468 3.37254 4.39503 3.4122V3.4122Z" fill="#2563EB"/>
</g>
<defs>
<clipPath id="clip0_2003_808">
<rect width="6.75787" height="6.75787" fill="white" transform="translate(0.0217133 0.517303)"/>
</clipPath>
</defs>
</svg>
