<svg width="30" height="32" viewBox="0 0 30 32" fill="none" xmlns="http://www.w3.org/2000/svg">
<path fill-rule="evenodd" clip-rule="evenodd" d="M24.0964 7.45105H26.7857C27.6382 7.45105 28.4558 7.7897 29.0586 8.39249C29.6614 8.99529 30 9.81286 30 10.6653V27.8082C30 28.6607 29.6614 29.4782 29.0586 30.081C28.4558 30.6838 27.6382 31.0225 26.7857 31.0225H3.21429C2.3618 31.0225 1.54424 30.6838 0.941443 30.081C0.338647 29.4782 0 28.6607 0 27.8082V10.6653C0 9.81286 0.338647 8.99529 0.941443 8.39249C1.54424 7.7897 2.3618 7.45105 3.21429 7.45105H5.88214C6.54022 5.56006 7.7706 3.92082 9.40255 2.7608C11.0345 1.60078 12.9871 0.977524 14.9893 0.977524C16.9915 0.977524 18.9441 1.60078 20.576 2.7608C22.208 3.92082 23.4384 5.56006 24.0964 7.45105ZM27.5433 9.90772C27.3424 9.70679 27.0699 9.59391 26.7857 9.59391H24.5786C24.6217 9.94942 24.6431 10.3072 24.6429 10.6653C24.6428 11.0234 24.6213 11.3812 24.5786 11.7368H26.7857C27.1506 11.7362 27.5129 11.7978 27.8571 11.9189V10.6653C27.8571 10.3812 27.7443 10.1087 27.5433 9.90772ZM20.3033 5.36204C18.8968 3.95551 16.9891 3.16534 15 3.16534C13.0109 3.16534 11.1032 3.95551 9.6967 5.36204C8.29018 6.76856 7.5 8.67621 7.5 10.6653C7.49833 11.0238 7.5234 11.382 7.575 11.7368H14.9904C14.2347 11.7356 13.5035 11.4683 12.9252 10.9815C12.3445 10.4926 11.9555 9.81404 11.8272 9.06588C11.6989 8.31773 11.8395 7.54829 12.2241 6.89386C12.6087 6.23943 13.2125 5.74224 13.9286 5.49034V5.3082C13.9286 5.02403 14.0415 4.75151 14.2424 4.55058C14.4433 4.34965 14.7158 4.23677 15 4.23677C15.2842 4.23677 15.5567 4.34965 15.7576 4.55058C15.9585 4.75151 16.0714 5.02403 16.0714 5.3082V5.49034C16.6984 5.712 17.2412 6.12266 17.6249 6.66571C18.0087 7.20877 18.2146 7.8575 18.2143 8.52248C18.2143 8.80664 18.1014 9.07916 17.9005 9.2801C17.6995 9.48103 17.427 9.59391 17.1429 9.59391C16.8587 9.59391 16.5862 9.48103 16.3852 9.2801C16.1843 9.07916 16.0714 8.80664 16.0714 8.52248C16.0714 8.31057 16.0086 8.10342 15.8909 7.92723C15.7731 7.75103 15.6058 7.6137 15.41 7.53261C15.2142 7.45152 14.9988 7.4303 14.791 7.47164C14.5831 7.51298 14.3922 7.61503 14.2424 7.76487C14.0925 7.91471 13.9905 8.10562 13.9492 8.31346C13.9078 8.52129 13.929 8.73672 14.0101 8.9325C14.0912 9.12828 14.2285 9.29561 14.4047 9.41334C14.5809 9.53107 14.7881 9.59391 15 9.59391H15.0536C15.7094 9.60453 16.3462 9.81552 16.8787 10.1986C17.4111 10.5816 17.8136 11.1184 18.0321 11.7368H22.425C22.4766 11.382 22.5017 11.0238 22.5 10.6653C22.5 8.67621 21.7098 6.76856 20.3033 5.36204ZM5.35714 9.59391H3.21429C2.93012 9.59391 2.6576 9.70679 2.45667 9.90772C2.25574 10.1087 2.14286 10.3812 2.14286 10.6653C2.14286 10.9495 2.25574 11.222 2.45667 11.423C2.6576 11.6239 2.93012 11.7368 3.21429 11.7368H5.35714V9.59391ZM3.21429 28.8796H26.7857C27.0699 28.8796 27.3424 28.7667 27.5433 28.5658C27.7443 28.3649 27.8571 28.0924 27.8571 27.8082V25.6653H24.6429C23.5062 25.6653 22.4161 25.2138 21.6124 24.4101C20.8087 23.6064 20.3571 22.5163 20.3571 21.3796C20.3571 20.243 20.8087 19.1529 21.6124 18.3492C22.4161 17.5454 23.5062 17.0939 24.6429 17.0939H27.8571V14.9511C27.8571 14.6669 27.7443 14.3944 27.5433 14.1934C27.3424 13.9925 27.0699 13.8796 26.7857 13.8796H3.21429C2.84939 13.8802 2.48707 13.8186 2.14286 13.6975V27.8082C2.14286 28.0924 2.25574 28.3649 2.45667 28.5658C2.6576 28.7667 2.93012 28.8796 3.21429 28.8796ZM24.6429 23.5225H27.8571V19.2368H24.6429C24.0745 19.2368 23.5295 19.4625 23.1276 19.8644C22.7258 20.2663 22.5 20.8113 22.5 21.3796C22.5 21.9479 22.7258 22.493 23.1276 22.8949C23.5295 23.2967 24.0745 23.5225 24.6429 23.5225ZM13.9288 20.3082H16.0717C16.3558 20.3082 16.6283 20.4211 16.8293 20.622C17.0302 20.823 17.1431 21.0955 17.1431 21.3796C17.1431 21.6638 17.0302 21.9363 16.8293 22.1373C16.6283 22.3382 16.3558 22.4511 16.0717 22.4511H13.9288C13.6446 22.4511 13.3721 22.3382 13.1712 22.1373C12.9703 21.9363 12.8574 21.6638 12.8574 21.3796C12.8574 21.0955 12.9703 20.823 13.1712 20.622C13.3721 20.4211 13.6446 20.3082 13.9288 20.3082Z" fill="#A1247C"/>
</svg>
